<svg xmlns="http://www.w3.org/2000/svg" viewBox="0 0 77.84 120" x="0px" y="0px"><g data-name="Layer 2"><g data-name="Layer 1"><path d="M66.69,48.39a5.62,5.62,0,1,0,0-2H39.21v-5.6h16a1,1,0,0,0,.8-.41l6.6-8.91h4a5.62,5.62,0,1,0,0-2H62.14a1,1,0,0,0-.81.41l-6.6,8.91H39.21V33.7H47.8a1,1,0,0,0,.79-.39l6.92-9.06a5.56,5.56,0,0,0,2.16.44,5.48,5.48,0,1,0-3.82-1.56L47.3,31.7H39.21V1a1,1,0,0,0-2,0V18.07a9.87,9.87,0,0,0-18.58,2.17,13.67,13.67,0,0,0,2.75,8.39l0,0a11.91,11.91,0,0,0,6.36,4,1,1,0,0,1-.26,2l-.26,0a13.9,13.9,0,0,1-6.82-4c-1.85.89-5.11,3-5.24,5.46a1,1,0,0,1-1,.95h0a1,1,0,0,1-1-1c.17-3.54,4-6,6-7a16.44,16.44,0,0,1-2.51-7.9c-5,0-9.12,4.44-9.12,9.88A10.54,10.54,0,0,0,8,34a1,1,0,0,1-.44,1.14C2.89,38,0,43.63,0,49.81a18.77,18.77,0,0,0,2.08,8.64,1,1,0,0,1,.11.51l0,.32c0,.2,0,.4,0,.6,0,7.94,4.65,14.52,11,16.14a16.39,16.39,0,0,1,2.08-9.27,13.1,13.1,0,0,1-6.58-6,1,1,0,1,1,1.8-.87,11.09,11.09,0,0,0,6,5.17l.12-.16a15.15,15.15,0,0,1,9.15-4.69,8.75,8.75,0,0,1,5.76-7.59,1,1,0,1,1,.66,1.89c-.2.07-4.69,1.74-4.42,6.55a1,1,0,0,1-.26.73,1,1,0,0,1-.7.33A13.51,13.51,0,0,0,18,66.23c-2.16,2.46-3.12,5.87-2.88,10.13l.53,0a1,1,0,0,1,.87.58,11.33,11.33,0,0,0,20.67-.2V95a1,1,0,0,0,2,0V64.3H47.3l6.55,8.57a5.47,5.47,0,1,0,3.82-1.56,5.56,5.56,0,0,0-2.16.44l-6.92-9.06a1,1,0,0,0-.79-.39H39.21V56.41H54.73l6.6,8.91a1,1,0,0,0,.81.41h4.55a5.62,5.62,0,1,0,0-2h-4L56,54.82a1,1,0,0,0-.8-.41h-16v-6ZM28.38,22.27a1,1,0,0,1,1.82-.83,8.25,8.25,0,0,0,7,4.55v2C31,27.84,28.41,22.33,28.38,22.27Zm.32,20.59c-.74,1-5,6.44-9.92,7.21a7.52,7.52,0,0,1-1.15.09A6.51,6.51,0,0,1,15,49.6c-.4,2-2.11,3.67-5.13,4.88a1,1,0,0,1-.37.07,1,1,0,0,1-.38-1.92c2.45-1,3.79-2.2,4-3.59.3-2.34-2.63-5.06-3.78-5.91a1,1,0,0,1-.21-1.4,1,1,0,0,1,1.39-.21c.18.13,3.54,2.64,4.41,5.75a4.7,4.7,0,0,0,3.56.82c4.43-.69,8.68-6.49,8.72-6.55a.88.88,0,0,1,.24-.23,7.5,7.5,0,0,1,6-1.39,9,9,0,0,1,3.76,1.94v2.8A8.21,8.21,0,0,0,33,41.88,5.5,5.5,0,0,0,28.7,42.86Zm.64,28.42a1,1,0,0,1-.85.46,1,1,0,0,1-.53-.15,1,1,0,0,1-.31-1.38c0-.06,3.64-5.67,9.56-5.36v2C32.42,66.53,29.48,71.06,29.34,71.28Z"/></g></g><text x="0" y="111" fill="#000000" font-size="5px" font-weight="bold" font-family="'Helvetica Neue', Helvetica, Arial-Unicode, Arial, Sans-serif">Created by Bernd Lakenbrink</text><text x="0" y="116" fill="#000000" font-size="5px" font-weight="bold" font-family="'Helvetica Neue', Helvetica, Arial-Unicode, Arial, Sans-serif">from the Noun Project</text></svg>