<?xml version="1.0" encoding="UTF-8" standalone="no"?>
<svg
   width="185"
   height="185"
   viewBox="0 0 185 185"
   fill="none"
   version="1.1"
   id="svg13"
   sodipodi:docname="logo.svg"
   inkscape:version="1.2.2 (1:1.2.2+202305151914+b0a8486541)"
   inkscape:export-filename="logo.ico"
   inkscape:export-xdpi="131.64983"
   inkscape:export-ydpi="131.64983"
   xmlns:inkscape="http://www.inkscape.org/namespaces/inkscape"
   xmlns:sodipodi="http://sodipodi.sourceforge.net/DTD/sodipodi-0.dtd"
   xmlns="http://www.w3.org/2000/svg"
   xmlns:svg="http://www.w3.org/2000/svg">
  <sodipodi:namedview
     id="namedview15"
     pagecolor="#ffffff"
     bordercolor="#000000"
     borderopacity="0.25"
     inkscape:showpageshadow="2"
     inkscape:pageopacity="0.0"
     inkscape:pagecheckerboard="0"
     inkscape:deskcolor="#d1d1d1"
     showgrid="false"
     inkscape:zoom="1.6842365"
     inkscape:cx="49.874231"
     inkscape:cy="-18.702837"
     inkscape:window-width="1854"
     inkscape:window-height="1016"
     inkscape:window-x="0"
     inkscape:window-y="0"
     inkscape:window-maximized="1"
     inkscape:current-layer="svg13" />
  <path
     d="m 185.07406,93.000495 c 5.51791,41.837315 -41.98904,92.240255 -93.074353,91.922065 L 49.500532,184.65784 C 21.887067,184.48585 -0.35906647,161.96105 -0.18706902,134.34738 L 0.07764595,91.848207 C 0.2222574,68.631284 29.191404,17.459277 93.151996,-0.07385646 v 0 C 174.63786,-2.6371247 175.40704,19.704247 185.07406,93.000495 Z"
     fill="url(#paint0_linear_13_13)"
     id="path2"
     style="fill:#ff7f2a"
     sodipodi:nodetypes="ssssssss" />
  <path
     d="m 70.106457,105.95568 c 0,0 0.03246,0.081 0.09739,0.24277 v 0.19429 c 0,0.1295 0,0.259 0,0.38851 0,0.1295 -0.03246,0.19421 -0.09739,0.19421 h -0.19408 c 0,0.0648 -0.03246,0.12951 -0.09669,0.19429 -0.129848,0 -0.243119,0.11327 -0.340505,0.33995 -0.06423,0.22662 -0.161618,0.51801 -0.291467,0.87413 -0.323237,0.51801 -0.63128,1.24646 -0.922055,2.18537 -0.291467,0.90652 -0.680318,1.9587 -1.165865,3.15661 -0.938632,2.39569 -2.023688,5.39047 -3.253786,8.98406 -0.129157,0.51801 -0.291467,0.9711 -0.485547,1.35995 -0.161619,0.38816 -0.307352,0.85782 -0.4372,1.40829 -0.259004,0.38886 -0.469661,0.84194 -0.63128,1.35995 -0.161618,0.48555 -0.339813,1.01944 -0.533894,1.60238 -0.129848,0.38885 -0.323928,0.84193 -0.582933,1.35994 -0.226542,0.48555 -0.437199,1.03602 -0.63128,1.65072 -0.259004,0.38886 -0.485547,0.84194 -0.680318,1.35995 -0.19408,0.48555 -0.436509,1.02013 -0.727975,1.60237 l -0.680318,1.40899 c -0.129157,0.32323 -0.307352,0.6147 -0.533894,0.87371 -0.226543,0.259 -0.404738,0.50212 -0.533895,0.72866 -0.129847,0.12916 -0.259695,0.25901 -0.388852,0.38816 -0.09738,0.12985 -0.210657,0.25901 -0.339814,0.38885 l -0.19408,0.38817 h -0.291466 c 0,0.0649 -0.03246,0.12984 -0.09739,0.19477 h -0.194081 c -0.06492,0 -0.09738,0.12915 -0.09738,0.38816 h -0.194081 -0.09739 -0.19408 -0.145733 -0.194081 -0.291466 -0.09739 -0.290776 c -0.129847,0 -0.194771,-0.0649 -0.194771,-0.19408 0,-0.12985 -0.03246,-0.19408 -0.09669,-0.19408 -0.129847,0 -0.226542,-0.0325 -0.291466,-0.0974 -0.06492,-0.0649 -0.16231,-0.0974 -0.291466,-0.0974 l -0.534586,-0.9711 c 0,-0.12915 -0.01588,-0.21065 -0.04835,-0.24243 -0.03246,-0.0325 -0.113271,-0.16231 -0.242428,-0.38885 0,-0.12915 -0.01658,-0.259 -0.04904,-0.38816 -0.03246,-0.12985 -0.04835,-0.259 -0.04835,-0.38885 -0.129847,0 -0.19408,-0.12916 -0.19408,-0.38816 v -0.19477 c -0.06492,0 -0.09739,-0.0642 -0.09739,-0.19408 v -0.19405 c 0,-0.32393 0,-0.51801 0,-0.58294 0,-0.0325 -0.06492,-0.11327 -0.194081,-0.24312 v -0.38816 -0.19408 -2.1853 -1.21422 c 0.129157,-0.38885 0.194081,-0.80947 0.194081,-1.26256 0,-0.48554 0.03246,-0.92275 0.09739,-1.3116 0.129156,-0.80947 0.209966,-1.56991 0.242428,-2.282 0.03246,-0.74455 0.113271,-1.50568 0.243118,-2.28269 0.259005,-2.9789 0.663742,-5.97368 1.214213,-8.98434 0.129157,-1.52157 0.291466,-3.0432 0.485547,-4.56484 0.194081,-1.5217 0.420623,-3.04333 0.679628,-4.56496 0.129847,-1.52171 0.291466,-3.07573 0.485546,-4.66208 0.226543,-1.586423 0.404738,-3.140449 0.534586,-4.662082 0.129156,-1.58642 0.242428,-3.140446 0.339813,-4.66208 0.09669,-1.554026 0.145733,-3.189 0.145733,-4.904921 0,-1.521634 -0.04904,-2.978551 -0.145733,-4.370682 -0.09739,-1.392131 -0.243119,-2.590044 -0.437199,-3.593669 -0.129157,-0.582794 -0.27489,-1.116965 -0.4372,-1.60265 -0.161618,-0.518009 -0.388161,-0.971232 -0.679627,-1.359739 -0.388852,-0.582725 -0.971094,-1.181681 -1.748107,-1.796868 h -0.63128 c 0,-0.129503 -0.01658,-0.194219 -0.04904,-0.194219 -0.03246,0 -0.04835,-0.03239 -0.04835,-0.09711 v -0.09718 h -0.291466 -0.582933 -0.63128 -0.582932 -0.776323 c -0.06492,0 -0.145733,0.06479 -0.243119,0.194288 -0.09739,0.129502 -0.210656,0.194219 -0.339813,0.194219 -0.194772,0 -0.404738,0.06479 -0.63128,0.194287 h -0.582933 c -0.06492,0.194219 -0.145733,0.30756 -0.243119,0.339952 -0.0967,0.03239 -0.209966,0.113272 -0.339813,0.242774 -0.259005,0 -0.469662,0.129502 -0.631281,0.388506 -0.06492,0 -0.145733,0.03239 -0.242428,0.09718 -0.09738,0.06472 -0.210657,0.09711 -0.340504,0.09711 -0.194081,0.194219 -0.372276,0.372345 -0.533894,0.534171 -0.161619,0.129502 -0.372276,0.291397 -0.631281,0.485616 -0.19408,0.129571 -0.388575,0.307628 -0.582863,0.53424 -0.161824,0.226611 -0.372274,0.453223 -0.631278,0.679903 -0.744689,0.744621 -1.48931,1.505472 -2.23393,2.282485 -0.712297,0.777013 -1.392131,1.667298 -2.039642,2.670923 -0.74469,0.938908 -1.424525,1.958764 -2.039712,3.059498 -0.582725,1.06841 -1.16552,2.169144 -1.748245,3.30234 -0.582794,1.003625 -1.181751,2.072035 -1.796869,3.205162 -0.582725,1.100735 -1.181682,2.2177 -1.7968,3.350896 -0.518009,1.003624 -1.052248,2.055804 -1.602581,3.156607 -0.518009,1.068341 -1.06841,2.072033 -1.651205,3.010943 -0.518008,1.13313 -1.036017,2.16914 -1.554026,3.10805 -0.485616,0.90645 -1.003625,1.86159 -1.554026,2.86521 -0.518009,0.93891 -1.05218,1.84543 -1.602581,2.71955 -0.518009,0.84173 -1.036018,1.66737 -1.554027,2.4767 -1.003625,1.91 -1.942533,3.56142 -2.816655,4.95313 -0.259005,0.32393 -0.485616,0.6962 -0.679904,1.11752 -0.194219,0.38816 -0.4209,0.74455 -0.679904,1.06848 -0.129502,0.38816 -0.307559,0.76043 -0.534171,1.11682 -0.194287,0.32324 -0.420899,0.74456 -0.679903,1.26257 -0.809406,1.32748 -1.554027,2.55758 -2.233862,3.69098 -0.679903,1.13271 -1.359807,2.15284 -2.039711,3.05902 -0.582725,1.1334 -1.084572,2.05615 -1.505472,2.76824 -0.453223,0.68032 -0.841729,1.29502 -1.165519,1.84549 -0.2590053,0.32393 -0.4370623,0.55047 -0.5341713,0.67963 -0.129502,0.12984 -0.259004,0.29146 -0.388507,0.48554 l -0.194287,0.19478 c -0.129434,0.518 -0.259005,0.518 -0.388438,0 v -0.58294 -0.0974 c 0,-0.0642 0.01616,-0.12915 0.04856,-0.19408 0.03232,-0.0649 0.04855,-0.16162 0.04855,-0.29146 0.06472,-0.0649 0.259005,-0.66375 0.582726,-1.79646 0.259004,-0.58293 0.550401,-1.37652 0.8741913,-2.38008 0.291329,-1.00356 0.663673,-2.20119 1.116896,-3.5936 0.453293,-1.19764 0.95514,-2.52512 1.505472,-3.98176 0.582794,-1.45733 1.214075,-2.9789 1.893978,-4.56538 0.129503,-0.51801 0.307559,-0.9711 0.534171,-1.35995 0.226681,-0.42062 0.404738,-0.90617 0.53424,-1.45664 l 0.631349,-1.16545 c 0.06472,-0.32372 0.145664,-0.55033 0.242773,-0.6799 0.09711,-0.16183 0.21045,-0.40467 0.339952,-0.72839 0.647511,-1.78071 1.537865,-3.56135 2.670992,-5.34199 0.453223,-1.13312 0.890353,-2.16914 1.311184,-3.10805 0.453292,-0.93891 0.95507,-1.89398 1.505471,-2.86521 0.518009,-0.938906 1.068411,-1.893976 1.651136,-2.865277 0.615187,-1.003625 1.214074,-1.974926 1.796869,-2.913765 0.582794,-1.003694 1.197912,-1.942533 1.845423,-2.816725 0.647511,-0.906515 1.327415,-1.829192 2.039643,-2.7681 0.647511,-0.809337 1.327415,-1.634974 2.039642,-2.476704 0.712297,-0.874123 1.424524,-1.764476 2.136821,-2.670991 0.74462,-0.744621 1.489241,-1.521634 2.233861,-2.33104 0.777013,-0.84173 1.521703,-1.651136 2.23393,-2.428149 0.74469,-0.938908 1.48931,-1.764476 2.23393,-2.476773 0.777014,-0.74462 1.570189,-1.521633 2.379595,-2.331039 0.74462,-0.938839 1.521355,-1.748245 2.33083,-2.428149 0.809475,-0.679904 1.683874,-1.327415 2.622506,-1.942533 0.06492,0 0.145733,-0.06472 0.243119,-0.194219 0.09669,-0.129502 0.209966,-0.194288 0.339813,-0.194288 0.129157,0 0.242428,-0.03239 0.339814,-0.09711 0.129848,-0.06479 0.259004,-0.09711 0.388852,-0.09711 0.129157,-0.259005 0.323237,-0.388507 0.582242,-0.388507 0.194771,-0.129502 0.453776,-0.194288 0.777013,-0.194288 0.194771,-0.259004 0.437199,-0.404668 0.728666,-0.437061 l 0.777013,-0.194288 h 0.09739 0.19408 0.291466 0.922747 c 0.453085,0 0.938632,0.145733 1.456641,0.43713 0.55047,0.259005 1.084365,0.582726 1.602373,0.971232 0.453776,0.582795 0.922747,1.311253 1.408294,2.185376 0.194771,0.388506 0.404737,0.825568 0.63197,1.311184 0.226543,0.453292 0.420623,0.874122 0.582242,1.262629 0.129848,0.518009 0.259005,1.003694 0.388852,1.456917 0.129157,0.420899 0.226543,0.938908 0.291466,1.554026 0.129157,0.518009 0.242429,0.987463 0.339814,1.408362 0.09739,0.388507 0.178195,0.84173 0.242428,1.359739 0.129848,1.003694 0.243119,2.02348 0.340505,3.059498 0.09669,1.003625 0.145733,1.974926 0.145733,2.913834 0.06423,1.003625 0.0967,1.958695 0.0967,2.86521 0,0.874123 0,1.780638 0,2.719546 -0.06492,0.938909 -0.0967,1.829193 -0.0967,2.670992 0,0.84173 -0.06492,1.732083 -0.194771,2.670991 -0.06423,1.780638 -0.161619,3.56128 -0.291467,5.34191 -0.129157,1.74832 -0.259004,3.4804 -0.388161,5.19632 -0.129847,1.58642 -0.307352,3.20516 -0.534585,4.8563 -0.226543,1.61902 -0.420623,3.18893 -0.582242,4.7105 -0.194081,1.32748 -0.372276,2.59004 -0.534585,3.78836 -0.161619,1.19764 -0.307352,2.37939 -0.437199,3.54457 0.129847,-0.64717 0.35639,-1.10025 0.680318,-1.35926 0.453085,-0.93932 0.873708,-1.78057 1.26256,-2.52581 0.420623,-0.77701 0.874399,-1.53745 1.359946,-2.282 0.744551,-1.39241 1.473217,-2.68743 2.185306,-3.88506 0.71209,-1.23045 1.375831,-2.31502 1.991226,-3.25393 0.582242,-1.13313 1.116827,-2.03964 1.602374,-2.71954 0.518009,-0.71223 0.971094,-1.32742 1.359945,-1.84543 0.194081,-0.1295 0.372276,-0.259 0.533895,-0.38851 0.16231,-0.16182 0.307352,-0.24277 0.4372,-0.24277 h 0.243119 0.09669 z m -15.248798,23.69897 h -0.19408 z m -0.19408,0 h -0.09739 z"
     fill="#000000"
     fill-opacity="0.86"
     id="path4"
     style="stroke-width:0.690678" />
  <defs
     id="defs11">
    <linearGradient
       id="paint0_linear_13_13"
       x1="0"
       y1="92"
       x2="185"
       y2="92"
       gradientUnits="userSpaceOnUse">
      <stop
         stop-color="#FFDB6E"
         id="stop6" />
      <stop
         offset="1"
         stop-color="#FFBC5E"
         id="stop8" />
    </linearGradient>
  </defs>
  <path
     style="fill:#000000;fill-opacity:1;stroke-width:6.45921;paint-order:fill markers stroke"
     d="m 21.022414,100.64193 c 0,0 23.847657,-11.712196 44.233445,-9.657788 20.385789,2.054409 4.098494,3.448103 -44.828776,13.647878 -48.927269,10.19978 0.595331,-3.99009 0.595331,-3.99009 z"
     id="path478" />
  <path
     id="path1739"
     style="fill:#000000;fill-opacity:1;stroke-width:6.45921;paint-order:fill markers stroke"
     d="m 87.9375,61.435547 c -1.230024,0.05991 -2.067154,0.811126 -2.75,2.398437 -1.798579,27.879946 -2.587096,48.560296 -4.097656,75.404296 -4.072669,15.08713 46.201396,-20.92206 23.722656,-31.22656 -5.939655,-4.63849 -8.103065,-5.44591 -12.855452,-6.37859 C 104.48433,95.945193 127.16256,80.416314 110.48633,72.921875 97.953634,66.374343 91.87663,61.790242 88.490234,61.451172 88.297827,61.431907 88.113218,61.426988 87.9375,61.435547 Z m 3.554688,7.173828 c 1.687487,0.130939 10.180152,6.287508 18.412542,8.388604 9.35114,2.386617 -20.417629,20.725343 -20.417629,20.725343 l 1.587118,-28.983088 c 0.104063,-0.103524 0.2434,-0.144404 0.417969,-0.130859 z m 0.274107,38.781385 c 2.138187,0.0371 9.351255,3.55075 12.891965,6.82918 7.08148,6.55681 -17.486084,21.21238 -17.486084,21.21238 l 1.781657,-25.19383 c 0.310318,-2.2347 0.674275,-2.88487 2.812462,-2.84773 z"
     sodipodi:nodetypes="scccccssssccsccccc" />
  <path
     id="path1739-6"
     style="fill:#000000;fill-opacity:1;stroke-width:6.45921;paint-order:fill markers stroke"
     d="m 127.60065,61.014693 c -1.23002,0.05991 -2.06715,0.811126 -2.75,2.398437 -1.79858,27.879946 -2.58709,48.56029 -4.09765,75.40429 30.03494,0.29881 50.93257,-55.322512 29.39648,-66.316399 -12.53269,-6.547532 -18.6097,-11.131633 -21.99609,-11.470703 -0.19241,-0.01927 -0.37702,-0.02418 -0.55274,-0.01563 z m 20.29123,13.615554 c 17.20282,17.281037 -6.52299,60.963153 -22.26034,56.327093 7.76062,-38.596689 -9.71816,-80.035238 22.26034,-56.327093 z"
     sodipodi:nodetypes="scccsssccc" />
</svg>
